<?xml version="1.0" encoding="UTF-8" standalone="no"?>
<!-- Created with Inkscape (http://www.inkscape.org/) -->

<svg
   xmlns:svg="http://www.w3.org/2000/svg"
   xmlns="http://www.w3.org/2000/svg"
   version="1.1"
   width="55"
   height="55"
   id="svg2">
  <defs
     id="defs10" />
  <rect
     width="51"
     height="51"
     rx="8.1000004"
     ry="7"
     x="2"
     y="2"
     id="rect4"
     style="fill:#000000;fill-opacity:1;stroke:#808080;stroke-width:4;stroke-miterlimit:4;stroke-opacity:1;stroke-dasharray:none" />
  <g
     transform="translate(-35.6,-10)"
     id="g6"
     style="fill:none;stroke:#ffffff;stroke-width:3;stroke-miterlimit:4;stroke-opacity:1;stroke-dasharray:none">
    <path
       d="m 33.4,62.5 10.1,10.1 c 0.8,0.8 1.2,1.8 1.2,2.9 0,2.3 -1.9,4.1 -4.1,4.1 -1.1,0 -2.2,-0.5 -2.9,-1.2 L 27.6,68.3 17.5,78.4 c -0.8,0.8 -1.8,1.2 -2.9,1.2 -2.3,0 -4.1,-1.9 -4.1,-4.1 0,-1.1 0.5,-2.2 1.2,-2.9 L 21.8,62.5 11.7,52.4 c -0.7,-0.7 -1.2,-1.8 -1.2,-2.9 0,-2.3 1.9,-4.1 4.1,-4.1 1.1,0 2.2,0.5 2.9,1.2 L 27.6,56.7 37.7,46.6 c 0.8,-0.7 1.8,-1.2 2.9,-1.2 2.3,0 4.1,1.9 4.1,4.1 0,1.1 -0.5,2.2 -1.2,2.9 L 33.4,62.5 z"
       transform="translate(35.5,-25)"
       id="path8"
       style="fill:none;stroke:#ffffff;stroke-width:3;stroke-miterlimit:4;stroke-opacity:1;stroke-dasharray:none" />
  </g>
</svg>
