<?xml version="1.0" encoding="UTF-8" standalone="no"?>
<!-- Created with Inkscape (http://www.inkscape.org/) -->

<svg
   xmlns:dc="http://purl.org/dc/elements/1.1/"
   xmlns:cc="http://creativecommons.org/ns#"
   xmlns:rdf="http://www.w3.org/1999/02/22-rdf-syntax-ns#"
   xmlns:svg="http://www.w3.org/2000/svg"
   xmlns="http://www.w3.org/2000/svg"
   version="1.1"
   width="55"
   height="55"
   id="svg2">
  <defs
     id="defs4" />
  <metadata
     id="metadata7">
    <rdf:RDF>
      <cc:Work
         rdf:about="">
        <dc:format>image/svg+xml</dc:format>
        <dc:type
           rdf:resource="http://purl.org/dc/dcmitype/StillImage" />
        <dc:title></dc:title>
      </cc:Work>
    </rdf:RDF>
  </metadata>
  <g
     transform="translate(0,-997.36218)"
     id="layer1">
    <g
       transform="matrix(0.60439352,0,0,0.60439561,-2.7199783,994.6424)"
       id="g3178"
       style="fill:#ffffff;stroke:#ffffff">
      <g
         id="Capa_38"
         style="fill:#ffffff;stroke:#ffffff">
        <g
           id="g3140"
           style="fill:#ffffff;stroke:#ffffff">
          <g
             id="g3142"
             style="fill:#ffffff;stroke:#ffffff">
            <g
               id="g3144"
               style="fill:#ffffff;stroke:#ffffff">
              <path
                 d="m 48.654,15.91 0,0 c 1.381,0 2.689,-0.527 3.685,-1.485 1.024,-0.983 1.605,-2.307 1.632,-3.726 0.027,-1.42 -0.5,-2.767 -1.484,-3.792 -1.011,-1.052 -2.371,-1.632 -3.832,-1.632 -1.378,0 -2.686,0.526 -3.681,1.482 -2.111,2.031 -2.182,5.404 -0.155,7.519 1.013,1.055 2.376,1.634 3.835,1.634 z M 45.993,7.819 c 0.72,-0.691 1.665,-1.072 2.662,-1.072 1.057,0 2.04,0.419 2.771,1.181 0.714,0.742 1.095,1.716 1.075,2.742 -0.021,1.026 -0.438,1.982 -1.18,2.694 -0.722,0.693 -1.668,1.075 -2.666,1.075 l 0,0 c -1.056,0 -2.042,-0.42 -2.775,-1.182 -1.465,-1.528 -1.415,-3.967 0.113,-5.438 z"
                 id="path3146"
                 style="fill:#ffffff;stroke:#ffffff" />
              <path
                 d="m 63.755,5 -6.689,7.898 -7.257,3.676 -2.204,-0.035 -6.729,-2.194 -5.758,-7.878 -3.429,2.181 5.264,9.454 c 0.372,0.587 0.948,1.001 1.572,1.151 l 5.548,1.765 -0.211,19.9 0.273,12.556 1.471,-0.032 -0.274,-12.532 0.22,-20.965 -6.63,-2.107 c -0.303,-0.073 -0.561,-0.259 -0.706,-0.485 l -4.566,-8.207 1.093,-0.695 5.225,7.148 7.287,2.374 2.894,0.08 7.848,-3.976 5.989,-7.074 0.969,0.715 -5.188,8.032 c -0.126,0.167 -0.292,0.302 -0.498,0.397 l -7.438,3.743 -0.095,11.72 -0.02,0.15 1.866,9.597 c 0.04,0.144 0.061,0.272 0.063,0.407 l 0.473,11.721 1.468,-0.06 -0.471,-11.709 c -0.007,-0.242 -0.043,-0.487 -0.102,-0.694 l -1.819,-9.238 0.098,-10.983 6.613,-3.329 c 0.403,-0.187 0.759,-0.475 1.063,-0.879 L 66.935,7.355 63.755,5 z"
                 id="path3148"
                 style="fill:#ffffff;stroke:#ffffff" />
              <polygon
                 points="50.446,53.441 50.178,40.884 50.202,38.944 48.731,38.927 48.707,40.891 48.976,53.472 "
                 id="polygon3150"
                 style="fill:#ffffff;stroke:#ffffff" />
            </g>
            <g
               id="g3152"
               style="fill:#ffffff;stroke:#ffffff">
              <polygon
                 points="28.921,60.229 28.788,57.205 27.318,57.271 27.451,60.245 27.196,71.416 28.667,71.45 "
                 id="polygon3154"
                 style="fill:#ffffff;stroke:#ffffff" />
              <path
                 d="m 37.738,39.484 -5.585,-4.881 c -0.588,-0.661 -1.351,-1.113 -2.184,-1.354 0.605,-0.275 1.165,-0.655 1.641,-1.153 0.985,-1.026 1.511,-2.374 1.48,-3.796 -0.03,-1.418 -0.612,-2.739 -1.636,-3.72 -0.993,-0.956 -2.3,-1.482 -3.679,-1.482 -1.46,0 -2.822,0.58 -3.839,1.634 -2.025,2.117 -1.956,5.489 0.156,7.516 0.699,0.675 1.561,1.123 2.488,1.336 -0.21,0.111 -0.413,0.239 -0.606,0.383 l -7.245,5.328 c -1.125,0.808 -1.446,2.366 -0.715,3.575 l 5.764,8.744 0.28,-0.168 -1.504,7.778 c -0.084,0.276 -0.132,0.558 -0.142,0.842 l -0.317,11.35 1.47,0.042 0.317,-11.345 c 0.005,-0.151 0.031,-0.307 0.098,-0.535 l 1.751,-9.035 -0.032,-0.25 c -0.012,-0.085 -0.024,-0.171 -0.027,-0.259 l -0.042,-1.252 -1.4,0.844 -4.972,-7.54 c -0.321,-0.531 -0.176,-1.231 0.337,-1.6 l 7.257,-5.336 c 0.545,-0.407 1.184,-0.624 1.863,-0.63 0.885,0 1.737,0.387 2.403,1.127 l 5.644,4.941 c 0.363,0.324 0.491,0.834 0.341,1.261 l -3.416,8.24 -1.431,-0.512 2.277,-7.769 -2.667,-2.322 0.086,10.151 -0.052,0.809 -0.023,0.238 0.413,9.483 -0.005,0.075 0.005,0.034 -0.248,11.142 1.471,0.033 0.241,-11.057 c 0.017,-0.12 0.017,-0.242 0.007,-0.292 l -0.373,-8.559 1.122,0.4 3.965,-9.57 c 0.367,-1.025 0.081,-2.158 -0.737,-2.889 z M 25,25.751 c 0.734,-0.763 1.721,-1.182 2.777,-1.182 0.996,0 1.94,0.38 2.659,1.072 0.742,0.71 1.163,1.665 1.186,2.689 0.021,1.027 -0.359,2.003 -1.072,2.746 -0.73,0.762 -1.716,1.183 -2.773,1.183 -0.997,0 -1.941,-0.381 -2.66,-1.074 C 23.585,29.72 23.535,27.281 25,25.751 z"
                 id="path3156"
                 style="fill:#ffffff;stroke:#ffffff" />
              <path
                 d="m 25.667,48.823 -0.082,-9.77 -3.661,2.736 3.743,7.034 z m -1.521,-5.989 -0.331,-0.622 0.323,-0.242 0.008,0.864 z"
                 id="path3158"
                 style="fill:#ffffff;stroke:#ffffff" />
            </g>
            <g
               id="g3160"
               style="fill:#ffffff;stroke:#ffffff">
              <polygon
                 points="72.567,71.416 72.312,60.295 72.447,57.271 70.978,57.205 70.842,60.279 71.097,71.45 "
                 id="polygon3162"
                 style="fill:#ffffff;stroke:#ffffff" />
              <path
                 d="m 81.77,42.84 c 0.708,-1.188 0.385,-2.745 -0.728,-3.542 l -7.249,-5.33 c -0.195,-0.146 -0.399,-0.274 -0.612,-0.387 0.927,-0.215 1.787,-0.66 2.488,-1.334 2.113,-2.028 2.184,-5.4 0.154,-7.519 -1.015,-1.052 -2.376,-1.632 -3.837,-1.632 -1.378,0 -2.685,0.526 -3.676,1.481 -1.027,0.984 -1.61,2.308 -1.639,3.729 -0.028,1.42 0.498,2.766 1.482,3.787 0.474,0.494 1.028,0.874 1.63,1.148 -0.818,0.233 -1.556,0.668 -2.106,1.295 l -5.658,4.951 c -0.809,0.725 -1.096,1.857 -0.717,2.921 l 3.952,9.533 1.122,-0.401 -0.369,8.511 c -0.014,0.104 -0.014,0.215 -0.006,0.256 l 0.251,11.141 1.472,-0.031 -0.252,-11.142 0.004,-0.076 -0.004,-0.033 0.408,-9.398 -0.072,-0.901 0.089,-10.381 -2.668,2.323 2.275,7.769 -1.429,0.512 -3.401,-8.204 c -0.164,-0.462 -0.035,-0.973 0.32,-1.291 l 5.718,-5.012 c 0.607,-0.686 1.438,-1.062 2.354,-1.062 0.663,0.005 1.301,0.223 1.849,0.632 l 7.262,5.339 c 0.502,0.36 0.646,1.063 0.345,1.57 l -4.989,7.566 -1.41,-0.844 3.72,-6.993 -3.67,-2.733 -0.067,9.716 -0.021,-0.014 v 1.297 c 0,0.094 -0.015,0.184 -0.039,0.366 l -0.015,0.119 1.831,9.107 c 0.046,0.154 0.07,0.308 0.075,0.457 l 0.319,11.35 1.471,-0.042 -0.318,-11.348 C 77.4,59.789 77.354,59.504 77.287,59.292 l -1.572,-7.845 0.271,0.164 5.784,-8.771 z M 68.143,28.337 c 0.021,-1.026 0.442,-1.983 1.188,-2.697 0.715,-0.69 1.659,-1.07 2.656,-1.07 1.058,0 2.043,0.419 2.776,1.179 1.467,1.533 1.416,3.971 -0.113,5.438 -0.72,0.692 -1.666,1.074 -2.663,1.074 -1.057,0 -2.039,-0.42 -2.771,-1.184 -0.713,-0.742 -1.094,-1.715 -1.073,-2.74 z m 7.48,13.632 0.327,0.244 -0.333,0.627 0.006,-0.871 z"
                 id="path3164"
                 style="fill:#ffffff;stroke:#ffffff" />
            </g>
          </g>
          <path
             d="M 84.073,95 H 15.927 V 71.325 H 38.14 V 53.314 H 61.818 V 71.325 H 84.074 V 95 z M 17.397,93.529 H 82.602 V 72.797 H 60.347 V 54.786 H 39.611 V 72.797 H 17.397 v 20.732 z"
             id="path3166"
             style="fill:#ffffff;stroke:#ffffff" />
        </g>
      </g>
    </g>
  </g>
</svg>
