<?xml version="1.0" encoding="UTF-8" standalone="no"?>
<!-- Created with Emacs -->
<svg
   xmlns:svg="http://www.w3.org/2000/svg"
   xmlns="http://www.w3.org/2000/svg"
   version="1.0"
   width="75"
   height="125">
<rect width="74.5" height="124.5" rx="11" ry="9" x="0.25" y="0.25"
style="fill:#ffffff;fill-opacity:1;stroke:#000000;stroke-width:0.5" />
<g>
<path d="m 28.3575,70.160499 -5.861,5.861 -5.861,-5.866001 -4.102,-4.1 c -0.747,-0.747999 -1.212,-1.784999 -1.212,-2.93 0,-2.288998 1.854,-4.145998 4.146,-4.145998 1.143,0 2.18,0.465 2.93,1.214 l 4.099,4.101999 14.102,-14.102998 c 0.754,-0.749 1.787,-1.214 2.934,-1.214 2.289,0 4.146,1.856001 4.146,4.145001 0,1.146 -0.467,2.18 -1.217,2.932 l -14.104,14.104997 z"
   transform="translate(10,-38.5)"
   style="fill:#FF00FF;stroke:#FF00FF;stroke-width:1.8;" />
<path d="m 28.3575,70.160499 -5.861,5.861 -5.861,-5.866001 -4.102,-4.1 c -0.747,-0.747999 -1.212,-1.784999 -1.212,-2.93 0,-2.288998 1.854,-4.145998 4.146,-4.145998 1.143,0 2.18,0.465 2.93,1.214 l 4.099,4.101999 14.102,-14.102998 c 0.754,-0.749 1.787,-1.214 2.934,-1.214 2.289,0 4.146,1.856001 4.146,4.145001 0,1.146 -0.467,2.18 -1.217,2.932 l -14.104,14.104997 z"
   transform="translate(10,1.5)"
   style="fill:#FF00FF;stroke:#FF00FF;stroke-width:1.8;" />
<path d="m 28.3575,70.160499 -5.861,5.861 -5.861,-5.866001 -4.102,-4.1 c -0.747,-0.747999 -1.212,-1.784999 -1.212,-2.93 0,-2.288998 1.854,-4.145998 4.146,-4.145998 1.143,0 2.18,0.465 2.93,1.214 l 4.099,4.101999 14.102,-14.102998 c 0.754,-0.749 1.787,-1.214 2.934,-1.214 2.289,0 4.146,1.856001 4.146,4.145001 0,1.146 -0.467,2.18 -1.217,2.932 l -14.104,14.104997 z"
   transform="translate(10,41.5)"
   style="fill:#FF00FF;stroke:#FF00FF;stroke-width:1.8;" />
</g>
</svg>
