<?xml version="1.0" encoding="UTF-8" standalone="no"?>
<!-- Created with Emacs -->
<svg
   xmlns:svg="http://www.w3.org/2000/svg"
   xmlns="http://www.w3.org/2000/svg"
   version="1.0"
   width="75"
   height="125">
<rect width="74.5" height="124.5" rx="11" ry="9" x="0.25" y="0.25"
style="fill:#ACC8E4;fill-opacity:1;stroke:#000000;stroke-width:0.5" />
<g>
<path d="m 33.3585,62.5035 10.102,10.1 c 0.752,0.75 1.217,1.783 1.217,2.932 0,2.287 -1.855,4.143 -4.146,4.143 -1.145,0 -2.178,-0.463 -2.932,-1.211 l -10.102,-10.103 -10.1,10.1 c -0.75,0.75 -1.787,1.211 -2.934,1.211 -2.284,0 -4.143,-1.854 -4.143,-4.141 0,-1.146 0.465,-2.184 1.212,-2.934 l 10.104,-10.102 -10.102,-10.1 c -0.747,-0.748 -1.212,-1.785 -1.212,-2.93 0,-2.289 1.854,-4.146 4.146,-4.146 1.143,0 2.18,0.465 2.93,1.214 l 10.099,10.102 10.102,-10.103 c 0.754,-0.749 1.787,-1.214 2.934,-1.214 2.289,0 4.146,1.856 4.146,4.145 0,1.146 -0.467,2.18 -1.217,2.932 l -10.104,10.105 z"
   transform="translate(10,-38.5)"
   style="fill:#FFFFFF;stroke:#0060C8;stroke-width:1.8;" />
<path d="m 33.3585,62.5035 10.102,10.1 c 0.752,0.75 1.217,1.783 1.217,2.932 0,2.287 -1.855,4.143 -4.146,4.143 -1.145,0 -2.178,-0.463 -2.932,-1.211 l -10.102,-10.103 -10.1,10.1 c -0.75,0.75 -1.787,1.211 -2.934,1.211 -2.284,0 -4.143,-1.854 -4.143,-4.141 0,-1.146 0.465,-2.184 1.212,-2.934 l 10.104,-10.102 -10.102,-10.1 c -0.747,-0.748 -1.212,-1.785 -1.212,-2.93 0,-2.289 1.854,-4.146 4.146,-4.146 1.143,0 2.18,0.465 2.93,1.214 l 10.099,10.102 10.102,-10.103 c 0.754,-0.749 1.787,-1.214 2.934,-1.214 2.289,0 4.146,1.856 4.146,4.145 0,1.146 -0.467,2.18 -1.217,2.932 l -10.104,10.105 z"
   transform="translate(10,1.5)"
   style="fill:#FFFFFF;stroke:#0060C8;stroke-width:1.8;" />
<path d="m 33.3585,62.5035 10.102,10.1 c 0.752,0.75 1.217,1.783 1.217,2.932 0,2.287 -1.855,4.143 -4.146,4.143 -1.145,0 -2.178,-0.463 -2.932,-1.211 l -10.102,-10.103 -10.1,10.1 c -0.75,0.75 -1.787,1.211 -2.934,1.211 -2.284,0 -4.143,-1.854 -4.143,-4.141 0,-1.146 0.465,-2.184 1.212,-2.934 l 10.104,-10.102 -10.102,-10.1 c -0.747,-0.748 -1.212,-1.785 -1.212,-2.93 0,-2.289 1.854,-4.146 4.146,-4.146 1.143,0 2.18,0.465 2.93,1.214 l 10.099,10.102 10.102,-10.103 c 0.754,-0.749 1.787,-1.214 2.934,-1.214 2.289,0 4.146,1.856 4.146,4.145 0,1.146 -0.467,2.18 -1.217,2.932 l -10.104,10.105 z"
   transform="translate(10,41.5)"
   style="fill:#FFFFFF;stroke:#0060C8;stroke-width:1.8;" />
</g>
</svg>
