<?xml version="1.0" ?><!DOCTYPE svg  PUBLIC '-//W3C//DTD SVG 1.1//EN'  'http://www.w3.org/Graphics/SVG/1.1/DTD/svg11.dtd' [
	<!ENTITY stroke_color "#000">
	<!ENTITY fill_color "#eee">
]><svg height="55px" viewBox="0 0 55 55" width="55px" xmlns="http://www.w3.org/2000/svg" xmlns:xlink="http://www.w3.org/1999/xlink" stroke-linecap="round" stroke-linejoin="round" stroke-width="3.5" stroke="&stroke_color;" fill="&fill_color;">
  <rect
     width="32.334251"
     height="18.480463"
     ry="3.2286379"
     x="-33.984367"
     y="4.8592024"
     transform="scale(-1,1)"
     id="rect4"
     style="fill:#ffffff;fill-opacity:1;stroke-width:2.5;stroke-miterlimit:4;stroke-dasharray:none" />
  <path
     d="M 11.506406,17.15491 9.094279,19.492636 6.6821516,17.152915 4.9939508,15.517584 C 4.6865189,15.219236 4.4951455,14.805617 4.4951455,14.348921 c 0,-0.912993 0.763024,-1.653678 1.7063093,-1.653678 0.4704079,0 0.897191,0.18547 1.2058577,0.484217 l 1.6869665,1.636129 5.803756,-5.62514 c 0.310313,-0.298747 0.735449,-0.484217 1.207504,-0.484217 0.94205,0 1.706309,0.740287 1.706309,1.65328 0,0.457095 -0.192197,0.869518 -0.500863,1.169461 l -5.804579,5.625937 z"
     id="path8"
     style="fill:&fill_color;;fill-opacity:1;stroke-width:1.21547604;stroke-miterlimit:4;stroke-dasharray:none" />
  <path
     d="m 24.590257,17.15491 -2.412127,2.337726 -2.412127,-2.339721 -1.688201,-1.635331 c -0.307432,-0.298348 -0.498805,-0.711967 -0.498805,-1.168663 0,-0.912993 0.763024,-1.653678 1.706309,-1.653678 0.470408,0 0.897191,0.18547 1.205858,0.484217 l 1.686966,1.636129 5.803756,-5.62514 c 0.310313,-0.298747 0.73545,-0.484217 1.207504,-0.484217 0.942051,0 1.706309,0.740287 1.706309,1.65328 0,0.457095 -0.192196,0.869518 -0.500863,1.169461 l -5.804579,5.625937 z"
     id="path12"
     style="fill:&fill_color;;fill-opacity:1;stroke-width:1.21547604;stroke-miterlimit:4;stroke-dasharray:none" />
  <g
     transform="matrix(0,-0.80930271,0.80930271,0,25.361137,36.741828)"
     id="g16"
     style="fill:none;stroke-width:1.6063211;stroke-miterlimit:4;stroke-dasharray:none" />
  <rect
     width="32.334251"
     height="18.480463"
     ry="3.2286379"
     x="-43.667126"
     y="18.259769"
     transform="scale(-1,1)"
     id="rect14"
     style="fill:#ffffff;fill-opacity:1;stroke-width:2.5;stroke-miterlimit:4;stroke-dasharray:none" />
  <rect
     width="11.032535"
     height="11.128365"
     rx="6.5246172"
     ry="7.2825327"
     x="-33.016266"
     y="29.016573"
     transform="matrix(0,-1,1,0,0,0)"
     id="rect18"
     style="fill:&fill_color;;fill-opacity:1;stroke-width:1.30000007;stroke-miterlimit:4;stroke-dasharray:none" />
  <rect
     width="11.032535"
     height="11.128365"
     rx="6.5246172"
     ry="7.2825327"
     x="-33.016266"
     y="14.855062"
     transform="matrix(0,-1,1,0,0,0)"
     id="rect22"
     style="fill:&fill_color;;fill-opacity:1;stroke-width:1.30000007;stroke-miterlimit:4;stroke-dasharray:none" />
  <rect
     width="5.7385573"
     height="5.7884035"
     rx="3.3937707"
     ry="3.7879994"
     x="-30.369278"
     y="31.686552"
     transform="matrix(0,-1,1,0,0,0)"
     id="rect22-3-7"
     style="fill:#ffffff;fill-opacity:1;stroke-width:1.21159649;stroke-miterlimit:4;stroke-dasharray:none" />
  <rect
     width="5.7385573"
     height="5.7884035"
     rx="3.3937707"
     ry="3.7879994"
     x="-30.369278"
     y="17.525042"
     transform="matrix(0,-1,1,0,0,0)"
     id="rect22-3"
     style="fill:#ffffff;fill-opacity:1;stroke-width:1.21159649;stroke-miterlimit:4;stroke-dasharray:none" />
  <rect
     width="32.334251"
     height="18.480463"
     ry="3.2286379"
     x="-53.349888"
     y="31.660334"
     transform="scale(-1,1)"
     id="rect24"
     style="fill:#ffffff;fill-opacity:1;stroke-width:2.5;stroke-miterlimit:4;stroke-dasharray:none" />
  <path
     d="m 30.030973,38.736805 3.649737,-3.731041 c 0.27102,-0.277741 0.644305,-0.449483 1.059507,-0.449483 0.826431,0 1.497115,0.68512 1.497115,1.531271 0,0.422891 -0.167309,0.804416 -0.437607,1.082895 l -3.650821,3.731041 3.649737,3.730302 c 0.27102,0.277003 0.437607,0.660005 0.437607,1.083635 0,0.843565 -0.669961,1.530162 -1.496392,1.530162 -0.414119,0 -0.78921,-0.171741 -1.06023,-0.447636 l -3.65046,-3.73178 -3.649737,3.731041 c -0.270297,0.275895 -0.645027,0.447636 -1.058785,0.447636 -0.827153,0 -1.498199,-0.68475 -1.498199,-1.53127 0,-0.422152 0.168033,-0.805154 0.438691,-1.082157 l 3.65046,-3.729933 -3.650821,-3.731041 c -0.270659,-0.278479 -0.438691,-0.660004 -0.438691,-1.083634 0,-0.845412 0.670684,-1.53127 1.497837,-1.53127 0.414119,0 0.787765,0.17248 1.059508,0.449483 l 3.651544,3.731779 z"
     id="path28"
     style="fill:&fill_color;;fill-opacity:1;stroke-width:1.27864337" />
  <path
     d="m 44.337081,38.736805 3.649737,-3.731041 c 0.27102,-0.277741 0.644305,-0.449483 1.059507,-0.449483 0.826431,0 1.497115,0.68512 1.497115,1.531271 0,0.422891 -0.16731,0.804416 -0.437607,1.082895 l -3.650821,3.731041 3.649737,3.730302 c 0.27102,0.277003 0.437607,0.660005 0.437607,1.083635 0,0.843565 -0.669962,1.530162 -1.496392,1.530162 -0.414119,0 -0.78921,-0.171741 -1.060231,-0.447636 l -3.650459,-3.73178 -3.649737,3.731041 c -0.270297,0.275895 -0.645028,0.447636 -1.058785,0.447636 -0.827153,0 -1.498199,-0.68475 -1.498199,-1.53127 0,-0.422152 0.168033,-0.805154 0.438691,-1.082157 l 3.65046,-3.729933 -3.650821,-3.731041 c -0.270659,-0.278479 -0.438691,-0.660004 -0.438691,-1.083634 0,-0.845412 0.670684,-1.53127 1.497837,-1.53127 0.414119,0 0.787765,0.17248 1.059508,0.449483 l 3.651544,3.731779 z"
     id="path32"
     style="fill:&fill_color;;fill-opacity:1;stroke-width:1.27864337" />
</svg>
