<?xml version="1.0" ?><!DOCTYPE svg  PUBLIC '-//W3C//DTD SVG 1.1//EN'  'http://www.w3.org/Graphics/SVG/1.1/DTD/svg11.dtd' [
	<!ENTITY stroke_color "#000">
	<!ENTITY fill_color "#eee">
]><svg height="55px" viewBox="0 0 55 55" width="55px" xmlns="http://www.w3.org/2000/svg" xmlns:xlink="http://www.w3.org/1999/xlink" stroke-linecap="round" stroke-linejoin="round" stroke-width="2.5" stroke="&stroke_color;" fill="&fill_color;">
  <path
     d="m 42.573529,33.33511 c 0,1.352206 -1.095588,2.447794 -2.447058,2.447794 H 6.0507352 c -1.3522059,0 -2.4477941,-1.095588 -2.4477941,-2.447794 V 14.701287 c 0,-1.352206 1.0955882,-2.447794 2.4477941,-2.447794 H 40.126471 c 1.35147,0 2.447058,1.095588 2.447058,2.447794 V 33.33511 z"
     style="fill:&fill_color;;fill-opacity:1;stroke:&stroke_color;;stroke-width:2.20588231;stroke-miterlimit:10;stroke-opacity:1;stroke-dasharray:none" />
  <path
     d="m 46.985294,38.136949 c 0,1.35147 -1.095588,2.447058 -2.447059,2.447058 H 10.4625 c -1.3514706,0 -2.4477942,-1.095588 -2.4477942,-2.447058 V 19.501654 c 0,-1.35147 1.0955883,-2.447058 2.4477942,-2.447058 h 34.075735 c 1.351471,0 2.447059,1.095588 2.447059,2.447058 v 18.635295 z"
     style="fill:&fill_color;;fill-opacity:1;stroke:&stroke_color;;stroke-width:2.20588231;stroke-miterlimit:10;stroke-opacity:1;stroke-dasharray:none" />
  <path
     d="m 51.397059,42.938052 c 0,1.35147 -1.095588,2.447058 -2.447059,2.447058 H 14.874265 c -1.351471,0 -2.447794,-1.095588 -2.447794,-2.447058 V 24.303493 c 0,-1.351471 1.095588,-2.447795 2.447794,-2.447795 H 48.95 c 1.351471,0 2.447059,1.095589 2.447059,2.447795 v 18.634559 z"
     style="fill:&fill_color;;fill-opacity:1;stroke:&stroke_color;;stroke-width:2.20588231;stroke-miterlimit:10;stroke-opacity:1;stroke-dasharray:none" />
  <path
     d="m 34.798071,33.66011 4.522794,-4.523529 c 0.747795,-0.753677 0.714706,-2.005882 -0.08529,-2.805882 -0.799264,-0.8 -2.05147,-0.838971 -2.805147,-0.08529 l -4.516911,4.52353 -4.517648,-4.52353 c -0.747058,-0.747794 -2.005882,-0.714705 -2.805882,0.08529 -0.799265,0.8 -0.838971,2.052205 -0.08529,2.805882 l 4.523529,4.523529 -4.43897,4.444853 c -0.747059,0.752941 -0.714706,2.005883 0.08529,2.805147 0.799265,0.8 2.052206,0.838971 2.805882,0.08529 l 4.438236,-4.444853 4.438235,4.444853 c 0.747059,0.752942 2.005882,0.714706 2.805147,-0.08529 0.799265,-0.8 0.838971,-2.052206 0.08529,-2.805147 L 34.798071,33.66011 z"
     style="fill:&stroke_color;;fill-opacity:1;stroke-width:0;stroke-miterlimit:10;stroke-dasharray:none" />
</svg>
